<svg width="15" height="15" viewBox="0 0 15 15" fill="none" xmlns="http://www.w3.org/2000/svg">
<path d="M5.91667 8.29167H1.16667C0.956704 8.29167 0.75534 8.37507 0.606874 8.52354C0.458407 8.67201 0.375 8.87337 0.375 9.08333V13.8333C0.375 14.0433 0.458407 14.2447 0.606874 14.3931C0.75534 14.5416 0.956704 14.625 1.16667 14.625H5.91667C6.12663 14.625 6.32799 14.5416 6.47646 14.3931C6.62493 14.2447 6.70833 14.0433 6.70833 13.8333V9.08333C6.70833 8.87337 6.62493 8.67201 6.47646 8.52354C6.32799 8.37507 6.12663 8.29167 5.91667 8.29167ZM5.125 13.0417H1.95833V9.875H5.125V13.0417ZM13.8333 0.375H9.08333C8.87337 0.375 8.67201 0.458407 8.52354 0.606874C8.37507 0.75534 8.29167 0.956704 8.29167 1.16667V5.91667C8.29167 6.12663 8.37507 6.32799 8.52354 6.47646C8.67201 6.62493 8.87337 6.70833 9.08333 6.70833H13.8333C14.0433 6.70833 14.2447 6.62493 14.3931 6.47646C14.5416 6.32799 14.625 6.12663 14.625 5.91667V1.16667C14.625 0.956704 14.5416 0.75534 14.3931 0.606874C14.2447 0.458407 14.0433 0.375 13.8333 0.375V0.375ZM13.0417 5.125H9.875V1.95833H13.0417V5.125ZM13.8333 10.6667H12.25V9.08333C12.25 8.87337 12.1666 8.67201 12.0181 8.52354C11.8697 8.37507 11.6683 8.29167 11.4583 8.29167C11.2484 8.29167 11.047 8.37507 10.8985 8.52354C10.7501 8.67201 10.6667 8.87337 10.6667 9.08333V10.6667H9.08333C8.87337 10.6667 8.67201 10.7501 8.52354 10.8985C8.37507 11.047 8.29167 11.2484 8.29167 11.4583C8.29167 11.6683 8.37507 11.8697 8.52354 12.0181C8.67201 12.1666 8.87337 12.25 9.08333 12.25H10.6667V13.8333C10.6667 14.0433 10.7501 14.2447 10.8985 14.3931C11.047 14.5416 11.2484 14.625 11.4583 14.625C11.6683 14.625 11.8697 14.5416 12.0181 14.3931C12.1666 14.2447 12.25 14.0433 12.25 13.8333V12.25H13.8333C14.0433 12.25 14.2447 12.1666 14.3931 12.0181C14.5416 11.8697 14.625 11.6683 14.625 11.4583C14.625 11.2484 14.5416 11.047 14.3931 10.8985C14.2447 10.7501 14.0433 10.6667 13.8333 10.6667ZM5.91667 0.375H1.16667C0.956704 0.375 0.75534 0.458407 0.606874 0.606874C0.458407 0.75534 0.375 0.956704 0.375 1.16667V5.91667C0.375 6.12663 0.458407 6.32799 0.606874 6.47646C0.75534 6.62493 0.956704 6.70833 1.16667 6.70833H5.91667C6.12663 6.70833 6.32799 6.62493 6.47646 6.47646C6.62493 6.32799 6.70833 6.12663 6.70833 5.91667V1.16667C6.70833 0.956704 6.62493 0.75534 6.47646 0.606874C6.32799 0.458407 6.12663 0.375 5.91667 0.375V0.375ZM5.125 5.125H1.95833V1.95833H5.125V5.125Z" fill="white"/>
</svg>
